# xmcd CD database file
#
# Track frame offsets:
#	150
#	16715
#	29121
#	41025
#	57200
#	72998
#	87236
#	98210
#	109306
#	123182
#	136783
#	149487
#
# Disc length: 2236 seconds
#
# Revision: 0
# Processed by: cddbd v1.5PL3 Copyright (c) Steve Scherf et al.
# Submitted via: Feurio! 1.67 - http://www.feurio.com
#
DISCID=a708ba0c
DTITLE=Lilly of the West - a collection
DYEAR=2004
DGENRE=Bluegrass
TTITLE0=Rescue
TTITLE1=Don't wanna live anymore
TTITLE2=High on the mountain
TTITLE3=Early morning rain
TTITLE4=Orphan girl
TTITLE5=Loving you more
TTITLE6=Memories
TTITLE7=Bill Cheatham
TTITLE8=I'm so lonesome I could cry
TTITLE9=Tears roll again
TTITLE10=I'll fly away
TTITLE11=Sto mi e milo I drago
EXTD=
EXTT0=
EXTT1=
EXTT2=
EXTT3=
EXTT4=
EXTT5=
EXTT6=
EXTT7=
EXTT8=
EXTT9=
EXTT10=
EXTT11=
PLAYORDER=
